<?xml version="1.0" standalone="no"?>
<!DOCTYPE svg PUBLIC "-//W3C//DTD SVG 20010904//EN"
 "http://www.w3.org/TR/2001/REC-SVG-20010904/DTD/svg10.dtd">
<svg version="1.0" xmlns="http://www.w3.org/2000/svg"
 width="1024.000000pt" height="1024.000000pt" viewBox="0 0 1024.000000 1024.000000"
 preserveAspectRatio="xMidYMid meet">

<g transform="translate(0.000000,1024.000000) scale(0.100000,-0.100000)"
fill="#000000" stroke="none">
<path d="M0 5120 l0 -5120 5120 0 5120 0 0 5120 0 5120 -5120 0 -5120 0 0
-5120z m5685 2908 c123 -24 272 -65 357 -96 105 -40 277 -133 372 -200 105
-76 256 -226 339 -337 80 -108 184 -312 227 -449 90 -288 96 -638 14 -928
-122 -435 -461 -799 -919 -985 -98 -40 -305 -103 -338 -103 -9 0 -17 -4 -17
-8 0 -9 211 -370 242 -414 l19 -28 551 0 550 0 127 133 c70 72 151 158 181
190 l54 59 -2 65 c-5 102 20 166 92 239 74 74 135 98 229 92 109 -7 217 -80
259 -175 99 -224 -87 -468 -326 -426 -33 6 -68 13 -76 16 -10 3 -46 -28 -100
-87 -307 -331 -357 -382 -385 -393 -22 -9 -160 -12 -499 -12 -370 -1 -467 -4
-463 -13 4 -12 188 -320 263 -440 l29 -48 790 0 790 0 0 -145 0 -145 -701 0
-701 0 209 -350 210 -350 487 0 c268 0 490 -2 492 -4 2 -2 3 -113 1 -245 l-3
-241 -583 0 -584 0 -32 58 c-18 31 -113 188 -210 347 -97 160 -295 486 -440
725 -145 239 -338 557 -428 705 -91 149 -248 408 -351 578 l-185 307 -558 0
-558 0 0 -1360 0 -1360 -215 0 -215 0 0 1575 0 1574 1018 4 c1151 4 1049 -3
1257 88 315 138 535 386 629 710 23 79 26 94 37 189 12 98 19 115 19 45 0 -27
3 -46 6 -42 4 3 6 38 7 76 0 45 4 68 10 64 6 -4 7 -1 1 8 -14 21 -11 92 4 108
11 12 11 15 0 22 -11 7 -11 9 0 9 8 0 10 5 6 12 -6 10 -12 60 -15 121 0 9 -4
17 -10 17 -5 0 -9 22 -9 49 0 35 -4 51 -15 55 -12 4 -13 10 -6 25 8 14 7 20
-3 24 -8 3 -12 17 -11 32 3 21 1 24 -10 15 -11 -9 -12 -7 -8 9 3 12 9 18 14
15 5 -3 9 0 9 5 0 6 -7 11 -16 11 -8 0 -12 5 -9 10 3 6 0 10 -8 10 -9 0 -13
10 -12 30 1 23 -2 30 -13 25 -10 -3 -12 0 -8 10 3 8 1 15 -4 15 -9 0 -26 39
-22 53 1 4 -3 7 -9 7 -6 0 -8 9 -4 20 5 15 3 18 -9 14 -9 -3 -13 -11 -9 -17 3
-6 1 -7 -6 -3 -6 4 -8 13 -4 19 12 19 12 36 1 44 -7 4 -9 -2 -6 -15 4 -12 3
-22 -2 -22 -8 0 -25 49 -21 64 1 5 -5 4 -13 -4 -10 -8 -16 -9 -16 -2 0 6 -12
18 -27 27 -27 15 -27 16 -3 10 19 -5 22 -4 10 4 -8 6 -23 11 -33 11 -11 0 -15
4 -11 12 5 8 2 9 -10 5 -11 -4 -15 -3 -10 4 3 6 15 9 25 6 18 -5 18 -4 2 25
-13 21 -19 25 -21 14 -5 -22 -34 -20 -31 2 3 32 -1 36 -16 16 -13 -16 -14 -16
-9 -1 3 9 1 17 -5 17 -6 0 -8 7 -5 15 5 11 -1 15 -21 15 -22 0 -25 3 -20 23 5
19 5 20 -5 4 -10 -16 -13 -16 -32 -2 -17 11 -25 12 -37 2 -12 -10 -14 -9 -8 7
6 16 5 17 -7 7 -10 -9 -16 -9 -21 -1 -4 6 -19 16 -33 21 -20 8 -28 7 -34 -6
-7 -12 -14 -13 -29 -5 -10 6 -19 7 -19 2 0 -5 12 -14 26 -20 14 -7 23 -8 20
-3 -3 5 0 11 8 14 9 4 12 0 9 -12 -3 -13 9 -27 44 -49 48 -32 131 -101 103
-86 -8 5 -43 28 -77 51 -82 58 -250 137 -343 162 -193 52 -149 51 -1641 51
l-1389 0 0 -2710 0 -2710 -215 0 -215 0 0 2925 0 2926 1633 -4 c1431 -3 1642
-6 1712 -19z"/>
<path d="M2593 8033 c9 -2 23 -2 30 0 6 3 -1 5 -18 5 -16 0 -22 -2 -12 -5z"/>
<path d="M2768 8033 c6 -2 18 -2 25 0 6 3 1 5 -13 5 -14 0 -19 -2 -12 -5z"/>
<path d="M3108 8033 c7 -3 16 -2 19 1 4 3 -2 6 -13 5 -11 0 -14 -3 -6 -6z"/>
<path d="M5508 8023 c7 -3 16 -2 19 1 4 3 -2 6 -13 5 -11 0 -14 -3 -6 -6z"/>
<path d="M5850 7966 c0 -2 9 -6 20 -9 11 -3 18 -1 14 4 -5 9 -34 13 -34 5z"/>
<path d="M6050 7896 c0 -2 9 -6 20 -9 11 -3 18 -1 14 4 -5 9 -34 13 -34 5z"/>
<path d="M6105 7882 c6 -5 27 -19 47 -30 21 -10 34 -23 30 -27 -4 -5 0 -5 8
-1 8 4 4 -1 -10 -13 -21 -16 -23 -22 -12 -33 11 -11 12 -10 7 5 -6 13 -2 17
14 17 13 0 21 7 22 18 0 11 2 12 6 4 3 -7 -1 -19 -7 -27 -10 -12 -9 -15 4 -15
9 0 16 -5 16 -11 0 -5 -5 -7 -12 -3 -7 4 -8 3 -4 -5 13 -20 28 0 22 28 -5 19
-4 22 4 11 8 -13 10 -13 10 2 0 12 -22 28 -67 49 -38 17 -72 34 -78 37 -7 3
-7 1 0 -6z"/>
<path d="M2362 7820 c0 -19 2 -27 5 -17 2 9 2 25 0 35 -3 9 -5 1 -5 -18z"/>
<path d="M6254 7788 c-4 -6 1 -17 11 -25 25 -17 41 -17 26 1 -10 12 -8 14 11
10 22 -5 22 -5 -2 10 -30 19 -37 19 -46 4z"/>
<path d="M6310 7755 c0 -3 12 -18 26 -33 l26 -27 -17 28 c-10 15 -13 27 -7 27
6 0 12 -4 14 -8 2 -4 19 -18 38 -31 l35 -23 -39 36 c-34 31 -76 48 -76 31z"/>
<path d="M6470 7661 c0 -6 4 -13 10 -16 6 -3 7 1 4 9 -7 18 -14 21 -14 7z"/>
<path d="M5678 7613 c6 -2 18 -2 25 0 6 3 1 5 -13 5 -14 0 -19 -2 -12 -5z"/>
<path d="M2743 7570 c0 -25 2 -35 4 -22 2 12 2 32 0 45 -2 12 -4 2 -4 -23z"/>
<path d="M5728 7603 c6 -2 18 -2 25 0 6 3 1 5 -13 5 -14 0 -19 -2 -12 -5z"/>
<path d="M5825 7590 c-3 -5 -1 -10 4 -10 6 0 11 5 11 10 0 6 -2 10 -4 10 -3 0
-8 -4 -11 -10z"/>
<path d="M2362 7565 c0 -16 2 -22 5 -12 2 9 2 23 0 30 -3 6 -5 -1 -5 -18z"/>
<path d="M5924 7545 c51 -25 73 -32 82 -24 7 6 18 8 23 5 5 -4 12 -3 15 2 2 4
-4 14 -16 21 -11 7 -17 8 -13 2 10 -17 -11 -13 -25 4 -7 9 -19 14 -27 11 -7
-3 -13 0 -13 6 0 7 -4 7 -14 -1 -10 -8 -21 -8 -40 -1 -53 20 -40 8 28 -25z
m52 7 c-3 -3 2 -11 12 -19 11 -9 5 -8 -18 3 -45 21 -45 22 -15 22 14 0 23 -3
21 -6z"/>
<path d="M2743 7445 c0 -38 2 -53 4 -32 2 20 2 52 0 70 -2 17 -4 1 -4 -38z"/>
<path d="M2362 7425 c0 -16 2 -22 5 -12 2 9 2 23 0 30 -3 6 -5 -1 -5 -18z"/>
<path d="M2361 7344 c0 -11 3 -14 6 -6 3 7 2 16 -1 19 -3 4 -6 -2 -5 -13z"/>
<path d="M2745 6840 c0 -289 1 -407 2 -262 2 144 2 380 0 525 -1 144 -2 26 -2
-263z"/>
<path d="M6813 7247 c9 -8 17 -19 17 -24 0 -6 8 -17 17 -24 14 -12 14 -9 -3
20 -10 19 -26 36 -34 38 -11 3 -10 0 3 -10z"/>
<path d="M2362 7170 c0 -19 2 -27 5 -17 2 9 2 25 0 35 -3 9 -5 1 -5 -18z"/>
<path d="M6871 7150 c0 -8 4 -22 9 -30 12 -18 12 -2 0 25 -6 13 -9 15 -9 5z"/>
<path d="M2361 7084 c0 -11 3 -14 6 -6 3 7 2 16 -1 19 -3 4 -6 -2 -5 -13z"/>
<path d="M2363 6965 c0 -33 2 -45 4 -27 2 18 2 45 0 60 -2 15 -4 0 -4 -33z"/>
<path d="M2362 6590 c0 -19 2 -27 5 -17 2 9 2 25 0 35 -3 9 -5 1 -5 -18z"/>
<path d="M7034 6445 c0 -60 1 -84 3 -52 2 32 2 81 0 110 -2 29 -3 3 -3 -58z"/>
<path d="M2361 6474 c0 -11 3 -14 6 -6 3 7 2 16 -1 19 -3 4 -6 -2 -5 -13z"/>
<path d="M2743 6275 c0 -22 2 -30 4 -17 2 12 2 30 0 40 -3 9 -5 -1 -4 -23z"/>
<path d="M6630 6286 c0 -13 -3 -38 -7 -56 -4 -21 -2 -31 4 -27 10 6 18 107 8
107 -3 0 -5 -11 -5 -24z"/>
<path d="M2361 6284 c0 -11 3 -14 6 -6 3 7 2 16 -1 19 -3 4 -6 -2 -5 -13z"/>
<path d="M2743 6195 c0 -22 2 -30 4 -17 2 12 2 30 0 40 -3 9 -5 -1 -4 -23z"/>
<path d="M2361 6194 c0 -11 3 -14 6 -6 3 7 2 16 -1 19 -3 4 -6 -2 -5 -13z"/>
<path d="M2742 6120 c0 -19 2 -27 5 -17 2 9 2 25 0 35 -3 9 -5 1 -5 -18z"/>
<path d="M2361 6124 c0 -11 3 -14 6 -6 3 7 2 16 -1 19 -3 4 -6 -2 -5 -13z"/>
<path d="M2744 5890 c0 -107 2 -151 3 -97 2 53 2 141 0 195 -1 53 -3 9 -3 -98z"/>
<path d="M2362 5900 c0 -14 2 -19 5 -12 2 6 2 18 0 25 -3 6 -5 1 -5 -13z"/>
<path d="M2362 5800 c0 -14 2 -19 5 -12 2 6 2 18 0 25 -3 6 -5 1 -5 -13z"/>
<path d="M2743 5650 c0 -25 2 -35 4 -22 2 12 2 32 0 45 -2 12 -4 2 -4 -23z"/>
<path d="M2744 5450 c0 -80 2 -112 3 -72 2 39 2 105 0 145 -1 39 -3 7 -3 -73z"/>
<path d="M2363 5350 c0 -36 2 -50 4 -32 2 17 2 47 0 65 -2 17 -4 3 -4 -33z"/>
<path d="M2362 5260 c0 -14 2 -19 5 -12 2 6 2 18 0 25 -3 6 -5 1 -5 -13z"/>
<path d="M2744 5165 c0 -66 1 -92 3 -57 2 34 2 88 0 120 -2 31 -3 3 -3 -63z"/>
<path d="M3703 5220 c0 -36 2 -50 4 -32 2 17 2 47 0 65 -2 17 -4 3 -4 -33z"/>
<path d="M7733 5243 c9 -2 25 -2 35 0 9 3 1 5 -18 5 -19 0 -27 -2 -17 -5z"/>
<path d="M2361 5214 c0 -11 3 -14 6 -6 3 7 2 16 -1 19 -3 4 -6 -2 -5 -13z"/>
<path d="M6360 5209 c-17 -13 -18 -17 -5 -10 33 17 51 31 40 31 -5 0 -21 -10
-35 -21z"/>
<path d="M6210 5120 c-9 -6 -10 -10 -3 -10 6 0 15 5 18 10 8 12 4 12 -15 0z"/>
<path d="M3703 5085 c0 -22 2 -30 4 -17 2 12 2 30 0 40 -3 9 -5 -1 -4 -23z"/>
<path d="M2362 5080 c0 -14 2 -19 5 -12 2 6 2 18 0 25 -3 6 -5 1 -5 -13z"/>
<path d="M6035 5040 c-3 -6 1 -7 9 -4 18 7 21 14 7 14 -6 0 -13 -4 -16 -10z"/>
<path d="M2743 4970 c0 -41 2 -58 4 -37 2 20 2 54 0 75 -2 20 -4 3 -4 -38z"/>
<path d="M5925 5010 c3 -6 -2 -10 -12 -11 -10 0 -13 -3 -6 -5 7 -3 20 -1 29 4
15 8 15 9 0 15 -10 4 -15 3 -11 -3z"/>
<path d="M5845 4980 c-13 -5 -14 -9 -5 -9 8 0 24 4 35 9 13 5 14 9 5 9 -8 0
-24 -4 -35 -9z"/>
<path d="M7450 4958 c0 -21 2 -38 4 -38 9 0 12 50 5 62 -6 8 -9 -1 -9 -24z"/>
<path d="M3703 4910 c0 -30 2 -43 4 -27 2 15 2 39 0 55 -2 15 -4 2 -4 -28z"/>
<path d="M4388 4933 c155 -2 409 -2 565 0 155 1 28 2 -283 2 -311 0 -438 -1
-282 -2z"/>
<path d="M2742 4870 c0 -14 2 -19 5 -12 2 6 2 18 0 25 -3 6 -5 1 -5 -13z"/>
<path d="M3704 4725 c0 -71 1 -99 3 -62 2 37 2 96 0 130 -2 34 -3 4 -3 -68z"/>
<path d="M2741 4824 c0 -11 3 -14 6 -6 3 7 2 16 -1 19 -3 4 -6 -2 -5 -13z"/>
<path d="M2363 4765 c0 -27 2 -38 4 -22 2 15 2 37 0 50 -2 12 -4 0 -4 -28z"/>
<path d="M5326 4787 c3 -10 9 -15 12 -12 3 3 0 11 -7 18 -10 9 -11 8 -5 -6z"/>
<path d="M2743 4710 c0 -25 2 -35 4 -22 2 12 2 32 0 45 -2 12 -4 2 -4 -23z"/>
<path d="M4081 4584 c0 -11 3 -14 6 -6 3 7 2 16 -1 19 -3 4 -6 -2 -5 -13z"/>
<path d="M2743 4535 c0 -22 2 -30 4 -17 2 12 2 30 0 40 -3 9 -5 -1 -4 -23z"/>
<path d="M2363 4520 c0 -25 2 -35 4 -22 2 12 2 32 0 45 -2 12 -4 2 -4 -23z"/>
<path d="M3702 4520 c0 -14 2 -19 5 -12 2 6 2 18 0 25 -3 6 -5 1 -5 -13z"/>
<path d="M3703 4420 c0 -41 2 -58 4 -37 2 20 2 54 0 75 -2 20 -4 3 -4 -38z"/>
<path d="M2743 4445 c0 -22 2 -30 4 -17 2 12 2 30 0 40 -3 9 -5 -1 -4 -23z"/>
<path d="M6718 4453 c7 -3 16 -2 19 1 4 3 -2 6 -13 5 -11 0 -14 -3 -6 -6z"/>
<path d="M2362 4365 c0 -16 2 -22 5 -12 2 9 2 23 0 30 -3 6 -5 -1 -5 -18z"/>
<path d="M3704 4205 c0 -77 2 -107 3 -67 2 40 2 103 0 140 -2 37 -3 4 -3 -73z"/>
<path d="M2361 4274 c0 -11 3 -14 6 -6 3 7 2 16 -1 19 -3 4 -6 -2 -5 -13z"/>
<path d="M2742 4270 c0 -14 2 -19 5 -12 2 6 2 18 0 25 -3 6 -5 1 -5 -13z"/>
<path d="M2743 4160 c0 -47 2 -66 4 -42 2 23 2 61 0 85 -2 23 -4 4 -4 -43z"/>
<path d="M2361 4194 c0 -11 3 -14 6 -6 3 7 2 16 -1 19 -3 4 -6 -2 -5 -13z"/>
<path d="M6333 4203 c53 -2 141 -2 195 0 53 1 9 3 -98 3 -107 0 -151 -2 -97
-3z"/>
<path d="M6753 4203 c54 -2 139 -2 190 0 51 1 7 3 -98 3 -104 0 -146 -2 -92
-3z"/>
<path d="M7058 4203 c12 -2 30 -2 40 0 9 3 -1 5 -23 4 -22 0 -30 -2 -17 -4z"/>
<path d="M2743 4010 c0 -36 2 -50 4 -32 2 17 2 47 0 65 -2 17 -4 3 -4 -33z"/>
<path d="M3703 4025 c0 -22 2 -30 4 -17 2 12 2 30 0 40 -3 9 -5 -1 -4 -23z"/>
<path d="M2744 3795 c0 -77 2 -107 3 -67 2 40 2 103 0 140 -2 37 -3 4 -3 -73z"/>
<path d="M2361 3854 c0 -11 3 -14 6 -6 3 7 2 16 -1 19 -3 4 -6 -2 -5 -13z"/>
<path d="M2361 3794 c0 -11 3 -14 6 -6 3 7 2 16 -1 19 -3 4 -6 -2 -5 -13z"/>
<path d="M3701 3784 c0 -11 3 -14 6 -6 3 7 2 16 -1 19 -3 4 -6 -2 -5 -13z"/>
<path d="M3702 3735 c0 -16 2 -22 5 -12 2 9 2 23 0 30 -3 6 -5 -1 -5 -18z"/>
<path d="M3702 3670 c0 -14 2 -19 5 -12 2 6 2 18 0 25 -3 6 -5 1 -5 -13z"/>
<path d="M6858 3663 c215 -2 569 -2 785 0 215 1 39 2 -393 2 -432 0 -608 -1
-392 -2z"/>
<path d="M2742 3625 c0 -16 2 -22 5 -12 2 9 2 23 0 30 -3 6 -5 -1 -5 -18z"/>
<path d="M3701 3624 c0 -11 3 -14 6 -6 3 7 2 16 -1 19 -3 4 -6 -2 -5 -13z"/>
<path d="M2742 3525 c0 -16 2 -22 5 -12 2 9 2 23 0 30 -3 6 -5 -1 -5 -18z"/>
<path d="M2742 3460 c0 -19 2 -27 5 -17 2 9 2 25 0 35 -3 9 -5 1 -5 -18z"/>
<path d="M2362 3400 c0 -14 2 -19 5 -12 2 6 2 18 0 25 -3 6 -5 1 -5 -13z"/>
<path d="M2742 3385 c0 -16 2 -22 5 -12 2 9 2 23 0 30 -3 6 -5 -1 -5 -18z"/>
<path d="M2743 3315 c0 -22 2 -30 4 -17 2 12 2 30 0 40 -3 9 -5 -1 -4 -23z"/>
<path d="M2361 3324 c0 -11 3 -14 6 -6 3 7 2 16 -1 19 -3 4 -6 -2 -5 -13z"/>
<path d="M2743 3235 c0 -22 2 -30 4 -17 2 12 2 30 0 40 -3 9 -5 -1 -4 -23z"/>
<path d="M2362 3240 c0 -14 2 -19 5 -12 2 6 2 18 0 25 -3 6 -5 1 -5 -13z"/>
<path d="M2741 3144 c0 -11 3 -14 6 -6 3 7 2 16 -1 19 -3 4 -6 -2 -5 -13z"/>
<path d="M2742 3090 c0 -14 2 -19 5 -12 2 6 2 18 0 25 -3 6 -5 1 -5 -13z"/>
<path d="M3702 2965 c0 -16 2 -22 5 -12 2 9 2 23 0 30 -3 6 -5 -1 -5 -18z"/>
<path d="M2744 2660 c0 -52 1 -74 3 -47 2 26 2 68 0 95 -2 26 -3 4 -3 -48z"/>
<path d="M8012 2656 c7 -8 15 -12 17 -11 5 6 -10 25 -20 25 -5 0 -4 -6 3 -14z"/>
<path d="M8022 2600 c0 -14 2 -19 5 -12 2 6 2 18 0 25 -3 6 -5 1 -5 -13z"/>
<path d="M2361 2594 c0 -11 3 -14 6 -6 3 7 2 16 -1 19 -3 4 -6 -2 -5 -13z"/>
<path d="M2742 2530 c0 -19 2 -27 5 -17 2 9 2 25 0 35 -3 9 -5 1 -5 -18z"/>
<path d="M3701 2544 c0 -11 3 -14 6 -6 3 7 2 16 -1 19 -3 4 -6 -2 -5 -13z"/>
<path d="M8021 2514 c0 -11 3 -14 6 -6 3 7 2 16 -1 19 -3 4 -6 -2 -5 -13z"/>
<path d="M3701 2504 c0 -11 3 -14 6 -6 3 7 2 16 -1 19 -3 4 -6 -2 -5 -13z"/>
<path d="M2363 2440 c0 -25 2 -35 4 -22 2 12 2 32 0 45 -2 12 -4 2 -4 -23z"/>
<path d="M8023 2440 c0 -25 2 -35 4 -22 2 12 2 32 0 45 -2 12 -4 2 -4 -23z"/>
<path d="M2743 2280 c0 -25 2 -35 4 -22 2 12 2 32 0 45 -2 12 -4 2 -4 -23z"/>
</g>
</svg>
